<?xml version="1.0" encoding="UTF-8" standalone="no"?>
<svg
   xmlns:dc="http://purl.org/dc/elements/1.1/"
   xmlns:cc="http://creativecommons.org/ns#"
   xmlns:rdf="http://www.w3.org/1999/02/22-rdf-syntax-ns#"
   xmlns:svg="http://www.w3.org/2000/svg"
   xmlns="http://www.w3.org/2000/svg"
   xml:space="preserve"
   enable-background="new 0 0 191.063 191.06"
   viewBox="0 0 191.063 191.06"
   height="191.06"
   width="191.063"
   y="0px"
   x="0px"
   id="Layer_1"
   version="1.1"><metadata
     id="metadata3394"><rdf:RDF><cc:Work
         rdf:about=""><dc:format>image/svg+xml</dc:format><dc:type
           rdf:resource="http://purl.org/dc/dcmitype/StillImage" /><dc:title /></cc:Work></rdf:RDF></metadata><defs
     id="defs3392" /><rect
     y="32.934097"
     x="12.878077"
     height="147.7812"
     width="165.51495"
     id="rect3396"
     style="fill:#ed225d;fill-opacity:1;stroke:none" /><path
     style="fill:#ffffff"
     id="path3386"
     d="m 58.197,108.205 c -1.354,-1.748 -3.064,-3.162 -5.135,-4.238 -2.07,-1.074 -4.496,-1.611 -7.281,-1.611 -2.627,0 -4.977,0.557 -7.045,1.672 -2.07,1.115 -3.842,2.549 -5.312,4.297 -1.475,1.752 -2.588,3.742 -3.344,5.971 -0.758,2.229 -1.133,4.459 -1.133,6.686 0,2.229 0.375,4.438 1.133,6.625 0.756,2.191 1.869,4.16 3.344,5.912 1.471,1.75 3.242,3.164 5.312,4.236 2.068,1.076 4.418,1.611 7.045,1.611 2.785,0 5.211,-0.555 7.281,-1.67 2.07,-1.115 3.781,-2.547 5.135,-4.299 1.352,-1.75 2.367,-3.74 3.045,-5.969 0.676,-2.229 1.014,-4.457 1.014,-6.686 0,-2.229 -0.338,-4.438 -1.014,-6.627 -0.678,-2.188 -1.693,-4.158 -3.045,-5.91 z" /><path
     style="fill:#ffffff"
     id="path3388"
     d="M 0,0 V 191.06 H 191.063 V 0 Z m 74.852,132.621 c -1.312,3.701 -3.184,6.924 -5.611,9.67 -2.427,2.746 -5.371,4.938 -8.834,6.566 -3.463,1.631 -7.385,2.447 -11.76,2.447 -4.061,0 -7.781,-0.836 -11.164,-2.506 -3.385,-1.672 -5.99,-3.939 -7.82,-6.807 h -0.238 v 36.295 H 15.098 V 92.328 h 13.729 v 7.998 h 0.359 c 0.715,-1.113 1.65,-2.248 2.805,-3.402 1.155,-1.154 2.568,-2.188 4.24,-3.105 1.67,-0.912 3.561,-1.67 5.67,-2.268 2.107,-0.596 4.477,-0.896 7.104,-0.896 4.059,0 7.799,0.777 11.223,2.328 3.422,1.555 6.367,3.684 8.836,6.389 2.465,2.707 4.375,5.891 5.73,9.551 1.352,3.662 2.029,7.602 2.029,11.82 0,4.218 -0.657,8.176 -1.971,11.878 z m 61.57,1.91 c -1.633,3.701 -3.842,6.826 -6.627,9.371 -2.787,2.549 -6.051,4.5 -9.791,5.852 -3.74,1.352 -7.721,2.029 -11.938,2.029 -7.086,0 -13.057,-1.654 -17.91,-4.955 -3.34,-2.271 -6.043,-5.133 -8.139,-8.553 l 10.367,-9.715 0.16,-0.059 c 1.193,3.344 3.182,6.029 5.969,8.059 2.785,2.029 6.09,3.045 9.91,3.045 2.148,0 4.178,-0.357 6.088,-1.076 1.912,-0.715 3.582,-1.748 5.016,-3.104 1.432,-1.352 2.566,-3.045 3.402,-5.072 0.836,-2.029 1.254,-4.318 1.254,-6.865 0,-3.264 -0.559,-5.971 -1.672,-8.119 -1.115,-2.148 -2.566,-3.881 -4.357,-5.193 -1.791,-1.312 -3.803,-2.229 -6.029,-2.746 -2.229,-0.518 -4.498,-0.775 -6.805,-0.775 -1.594,0 -3.283,0.119 -5.074,0.357 -1.791,0.24 -3.543,0.578 -5.254,1.016 -1.713,0.438 -3.383,0.936 -5.014,1.49 -1.633,0.559 -3.086,1.156 -4.357,1.791 l 1.432,-46.201 h 48.113 V 78 h -34.504 l -0.834,18.268 c 1.352,-0.398 2.963,-0.676 4.834,-0.838 1.871,-0.156 3.562,-0.238 5.074,-0.238 4.139,0 7.979,0.598 11.521,1.791 3.541,1.193 6.627,2.926 9.252,5.193 2.629,2.27 4.676,5.057 6.148,8.357 1.473,3.305 2.209,7.104 2.209,11.402 10e-4,4.697 -0.815,8.895 -2.444,12.596 z m 37.388,-47.455 -5.243,3.802 -5.449,-7.211 -5.312,7.026 -5.107,-3.89 5.171,-7.08 -8.392,-3.027 1.981,-6.095 8.419,2.714 v -8.708 h 6.754 v 8.721 l 8.357,-2.522 1.979,6.09 -8.333,2.843 z" /></svg>