<?xml version="1.0" standalone="no"?>
<!DOCTYPE svg PUBLIC "-//W3C//DTD SVG 20010904//EN"
 "http://www.w3.org/TR/2001/REC-SVG-20010904/DTD/svg10.dtd">
<svg version="1.0" xmlns="http://www.w3.org/2000/svg"
 width="144.000000pt" height="144.000000pt" viewBox="0 0 144.000000 144.000000"
 preserveAspectRatio="xMidYMid meet">
<metadata>
Created by potrace 1.16, written by Peter Selinger 2001-2019
</metadata>
<g transform="translate(0.000000,144.000000) scale(0.100000,-0.100000)"
fill="#000000" stroke="none">
<path d="M631 1081 c-21 -21 -42 -53 -46 -70 -9 -41 9 -91 43 -124 32 -31 60
-42 127 -51 75 -11 84 -15 100 -46 23 -45 19 -114 -8 -145 -19 -22 -34 -28
-93 -35 -81 -8 -102 -18 -137 -60 -51 -60 -43 -135 18 -189 48 -42 93 -49 149
-22 54 27 72 52 91 132 19 84 37 99 122 109 80 8 101 18 137 61 21 25 26 41
26 85 0 50 -3 57 -39 93 -34 34 -47 40 -98 46 -78 9 -121 23 -132 43 -5 9 -12
37 -16 62 -10 58 -27 92 -65 124 -26 21 -42 26 -86 26 -49 0 -57 -3 -93 -39z"/>
<path d="M367 842 c-30 -18 -67 -85 -67 -120 0 -39 27 -88 60 -112 91 -65 220
4 220 116 0 40 -30 94 -64 115 -39 24 -112 24 -149 1z"/>
<path d="M100 599 c-21 -5 -48 -22 -67 -43 -29 -31 -33 -43 -33 -91 0 -46 4
-59 31 -90 61 -70 150 -68 209 3 23 28 30 46 30 80 0 98 -75 161 -170 141z"/>
<path d="M1280 602 c-14 -2 -37 -13 -53 -24 -65 -46 -77 -139 -26 -200 58 -72
147 -73 209 -2 26 30 30 43 30 89 0 48 -4 60 -32 91 -34 36 -81 53 -128 46z"/>
</g>
</svg>
