<?xml version="1.0" standalone="no"?>
<!DOCTYPE svg PUBLIC "-//W3C//DTD SVG 20010904//EN"
 "http://www.w3.org/TR/2001/REC-SVG-20010904/DTD/svg10.dtd">
<svg version="1.0" xmlns="http://www.w3.org/2000/svg"
 width="328.000000pt" height="80.000000pt" viewBox="0 0 328.000000 80.000000"
 preserveAspectRatio="xMidYMid meet">
<metadata>
Created by potrace 1.16, written by Peter Selinger 2001-2019
</metadata>
<g transform="translate(0.000000,80.000000) scale(0.100000,-0.100000)"
fill="#000000" stroke="none">
<path d="M957 630 c-39 -161 -79 -257 -112 -270 -12 -5 -14 -9 -5 -9 8 -1 -6
-21 -34 -50 -46 -47 -76 -57 -76 -26 0 8 31 42 70 76 43 39 75 77 85 102 9 22
14 42 11 44 -6 7 -46 -58 -46 -74 0 -7 -5 -13 -11 -13 -7 0 -9 10 -5 28 23 93
25 92 -59 14 -42 -39 -81 -72 -86 -72 -5 0 -12 6 -15 14 -5 14 16 36 101 109
47 40 23 42 -29 2 -54 -41 -63 -44 -42 -13 9 12 16 33 16 46 0 21 -9 15 -77
-47 -42 -39 -82 -70 -88 -68 -26 9 -10 37 50 87 36 29 65 58 65 62 0 16 -37
-11 -94 -67 -32 -30 -62 -52 -68 -49 -6 4 -8 3 -5 -3 4 -6 -10 -22 -31 -36
-20 -15 -52 -39 -69 -55 l-33 -28 0 -107 0 -107 204 0 204 0 35 39 c44 48 67
92 67 124 0 27 35 113 50 122 6 3 10 16 10 28 0 12 10 63 22 114 19 78 27 93
46 98 20 5 22 11 22 70 0 56 -2 65 -18 65 -16 0 -25 -25 -55 -150z"/>
</g>
</svg>
